<svg xmlns="http://www.w3.org/2000/svg" width="512" height="512" viewBox="0 0 512 512">
  <defs>
    <linearGradient id="bg" x1="72" y1="52" x2="444" y2="468" gradientUnits="userSpaceOnUse"><stop stop-color="#7957ff"/><stop offset="1" stop-color="#3824a8"/></linearGradient>
    <linearGradient id="route" x1="141" y1="345" x2="376" y2="165" gradientUnits="userSpaceOnUse"><stop stop-color="#22d3ee"/><stop offset="1" stop-color="#67e8f9"/></linearGradient>
    <filter id="shadow" x="-20%" y="-20%" width="140%" height="150%"><feDropShadow dx="0" dy="16" stdDeviation="16" flood-color="#1c1261" flood-opacity=".35"/></filter>
  </defs>
  <rect x="28" y="28" width="456" height="456" rx="112" fill="url(#bg)"/>
  <path d="M72 178c73-62 137-44 192-6s108 50 176-10M66 239c77-57 144-39 199 0s107 47 181-8M71 304c73-53 136-36 190 0s105 45 175-5" fill="none" stroke="#ffffff" stroke-opacity=".09" stroke-width="10" stroke-linecap="round"/>
  <g filter="url(#shadow)">
    <path d="M103 148l96-40 113 42 97-40v250l-97 42-113-43-96 41z" fill="#ffffff"/>
    <path d="M199 108l113 42v252l-113-43z" fill="#eeeaff"/>
    <path d="M103 148l96-40v251l-96 41z" fill="#ffffff"/>
    <path d="M312 150l97-40v250l-97 42z" fill="#dcd5ff"/>
    <path d="M139 326c47-4 45-67 96-69 42-2 42 47 80 31 34-14 20-72 61-99" fill="none" stroke="url(#route)" stroke-width="19" stroke-linecap="round" stroke-linejoin="round"/>
    <circle cx="139" cy="326" r="21" fill="#22d3ee" stroke="#33218f" stroke-width="11"/>
    <circle cx="235" cy="257" r="12" fill="#ffffff" stroke="#4e35c7" stroke-width="8"/>
    <circle cx="315" cy="288" r="12" fill="#ffffff" stroke="#4e35c7" stroke-width="8"/>
    <path d="M376 139c-35 0-63 27-63 61 0 45 63 103 63 103s63-58 63-103c0-34-28-61-63-61z" fill="#ffcf4a" stroke="#33218f" stroke-width="11" stroke-linejoin="round"/>
    <path d="M376 167l10 20 23 3-17 16 4 23-20-11-20 11 4-23-17-16 23-3z" fill="#33218f"/>
  </g>
</svg>